<svg width="177" height="74" viewBox="0 0 177 74" fill="none" xmlns="http://www.w3.org/2000/svg">
<path d="M3.90234 27.5254C3 27.127 2.29102 26.6289 1.77539 26.0312C1.27148 25.4336 0.9375 24.8711 0.773438 24.3438C0.515625 23.5586 0.386719 22.8848 0.386719 22.3223C0.386719 21.7598 0.568359 21.1152 0.931641 20.3887C1.30664 19.6621 1.92188 18.9414 2.77734 18.2266C4.65234 16.668 7.5293 15.332 11.4082 14.2188C10.166 13.6914 9.45703 12.8535 9.28125 11.7051C9.10547 10.3926 9.66797 9.22656 10.9688 8.20703C13.3711 6.32031 17.9883 5.04297 24.8203 4.375C26.9297 4.17578 28.459 4.07617 29.4082 4.07617C30.3691 4.07617 31.0488 4.22852 31.4473 4.5332C31.8574 4.83789 32.0977 5.29492 32.168 5.9043C32.25 6.50195 32.1387 7.00586 31.834 7.41602C31.5293 7.82617 31.0957 8.1543 30.5332 8.40039C29.4902 8.85742 28.0664 9.08594 26.2617 9.08594C24.9375 9.08594 23.7305 8.88672 22.6406 8.48828C22.3477 8.37109 22.1191 8.24805 21.9551 8.11914C19.6113 8.8457 18.2812 9.66016 17.9648 10.5625C17.8711 10.7969 17.8359 11.0137 17.8594 11.2129C17.9648 11.9277 18.4336 12.4551 19.2656 12.7949C20.0977 13.1348 21.3633 13.3516 23.0625 13.4453C23.625 13.4922 24.041 13.6445 24.3105 13.9023C24.5918 14.1602 24.75 14.4297 24.7852 14.7109C24.832 14.9922 24.8145 15.2148 24.7324 15.3789C24.6504 15.5312 24.5273 15.6602 24.3633 15.7656C24.082 15.9531 23.5254 16.1113 22.6934 16.2402C21.8613 16.3691 20.8945 16.5508 19.793 16.7852C18.6914 17.0078 17.6426 17.248 16.6465 17.5059C15.6504 17.7637 14.7246 18.0273 13.8691 18.2969C13.0254 18.5664 12.293 18.8242 11.6719 19.0703C10.3594 19.6211 9.72656 20.0664 9.77344 20.4062C9.82031 20.7344 9.95508 21.0215 10.1777 21.2676C10.4004 21.5137 10.6992 21.7305 11.0742 21.918C11.7773 22.2461 12.6328 22.457 13.6406 22.5508C14.6602 22.6328 15.6445 22.6738 16.5938 22.6738C17.5547 22.6738 18.5801 22.5977 19.6699 22.4453C20.7715 22.2812 21.7969 22.0762 22.7461 21.8301C23.707 21.584 24.5859 21.3262 25.3828 21.0566C26.1914 20.7754 26.8945 20.5117 27.4922 20.2656L28.9336 19.668C29.3086 19.5039 29.6484 19.4219 29.9531 19.4219C30.7617 19.4219 31.2188 19.8496 31.3242 20.7051C31.4648 21.8652 30.1641 23.1719 27.4219 24.625C23.7539 26.582 19.6992 27.8594 15.2578 28.457C14.2266 28.5977 12.9844 28.668 11.5312 28.668C10.0898 28.668 8.68359 28.5742 7.3125 28.3867C5.94141 28.1992 4.80469 27.9121 3.90234 27.5254ZM52.2598 15.959C53.4082 15.959 53.9824 16.3574 53.9824 17.1543C53.9824 17.916 53.4434 18.9004 52.3652 20.1074L51.5039 21.0039C50.4609 22.0703 49.2422 23.1191 47.8477 24.1504C46.4648 25.1816 45.2461 25.9961 44.1914 26.5938C41.7422 27.9531 39.5215 28.6328 37.5293 28.6328C35.6543 28.6328 34.125 28.0703 32.9414 26.9453C31.9219 25.9727 31.4121 24.9473 31.4121 23.8691C31.4121 22.791 31.5176 21.7188 31.7285 20.6523C31.9395 19.5859 32.2148 18.543 32.5547 17.5234C33.2344 15.4492 33.9785 13.6855 34.7871 12.2324C34.998 11.834 35.1035 11.5762 35.1035 11.459H32.8359C31.9805 11.459 31.3184 11.2598 30.8496 10.8613C30.3809 10.4629 30.1465 10.0117 30.1465 9.50781C30.1465 9.00391 30.2402 8.63477 30.4277 8.40039C30.6152 8.16602 30.8496 7.99609 31.1309 7.89062C31.5293 7.72656 32.1152 7.64453 32.8887 7.64453L37.1953 7.66211C37.2891 7.62695 37.4766 7.375 37.7578 6.90625L38.8301 5.06055C39.2871 4.24023 39.7441 3.63672 40.2012 3.25C40.6699 2.86328 41.2148 2.66992 41.8359 2.66992C42.4688 2.66992 42.9961 2.72852 43.418 2.8457C43.8516 2.96289 44.2148 3.10938 44.5078 3.28516C45.082 3.66016 45.3691 4.07031 45.3691 4.51562C45.3691 4.70313 45.3047 4.95508 45.1758 5.27148L44.1914 7.66211L52.541 7.64453C53.2676 7.64453 53.6309 8.01953 53.6309 8.76953C53.6309 10.5508 52.043 11.4414 48.8672 11.4414L42.4336 11.459C42.293 11.5293 42.0527 11.8691 41.7129 12.4785L40.9219 13.9375C40.7227 14.3008 40.582 14.5762 40.5 14.7637L40.1133 15.625C39.3281 17.3945 38.9355 18.6719 38.9355 19.457C38.9355 20.2422 39.1406 20.8984 39.5508 21.4258C39.9727 21.9531 40.5293 22.2168 41.2207 22.2168C41.9121 22.2168 42.5859 22.082 43.2422 21.8125C43.9102 21.543 44.5605 21.2148 45.1934 20.8281C46.3418 20.1133 47.2441 19.4512 47.9004 18.8418C48.5566 18.2324 49.1016 17.7695 49.5352 17.4531C49.5352 17.4531 49.9453 17.166 50.7656 16.5918C51.3984 16.1699 51.8965 15.959 52.2598 15.959ZM75.7793 16.6621C75.7793 17.2129 75.0586 18.2793 73.6172 19.8613C72.1406 21.4668 70.6934 22.7734 69.2754 23.7812C66.5332 25.8203 63.4922 27.2148 60.1523 27.9648C58.8867 28.2578 57.6855 28.4043 56.5488 28.4043C55.4238 28.4043 54.4863 28.3047 53.7363 28.1055C52.998 27.918 52.3301 27.666 51.7324 27.3496C51.1465 27.0215 50.6367 26.6465 50.2031 26.2246C49.7695 25.8027 49.4062 25.3574 49.1133 24.8887C48.5391 23.9746 48.252 23.1309 48.252 22.3574C48.252 21.584 48.3398 20.9043 48.5156 20.3184C48.6797 19.7324 48.9141 19.1758 49.2188 18.6484C50.2852 16.7266 52.4297 15.0273 55.6523 13.5508C58.1953 12.3672 60.6211 11.5996 62.9297 11.248C63.9258 11.0957 64.6348 11.0195 65.0566 11.0195C65.4785 11.0195 65.8301 11.0664 66.1113 11.1602C66.4043 11.2422 66.6562 11.3594 66.8672 11.5117C67.3359 11.8516 67.5703 12.3145 67.5703 12.9004C67.5703 13.4863 67.418 14.043 67.1133 14.5703C66.8086 15.0859 66.4219 15.5195 65.9531 15.8711C65.0391 16.5508 64.0195 16.8906 62.8945 16.8906C61.3594 16.8906 60.0938 16.6914 59.0977 16.293C58.4062 16.5391 57.8203 16.9902 57.3398 17.6465C56.9414 18.1855 56.7422 18.6719 56.7422 19.1055C56.7422 19.5273 56.8359 19.9434 57.0234 20.3535C57.2227 20.752 57.498 21.1094 57.8496 21.4258C58.623 22.1055 59.5547 22.4453 60.6445 22.4453C63.1758 22.4453 66.123 21.1035 69.4863 18.4199L71.0859 17.1719C72.7734 15.8828 73.9746 15.2383 74.6895 15.2383C75.416 15.2383 75.7793 15.7129 75.7793 16.6621ZM78.9785 16.627C78.9785 17.0488 79.1367 17.2598 79.4531 17.2598C79.8398 17.2598 80.3379 17.002 80.9473 16.4863L82.4766 15.168C84.0938 13.7734 85.6348 13.0762 87.0996 13.0762C88.0488 13.0762 88.8926 13.8672 89.6309 15.4492C90.2754 16.8086 90.8555 18.8359 91.3711 21.5312C91.4648 21.9766 91.541 22.1992 91.5996 22.1992C91.6699 22.1992 91.8398 22.0938 92.1094 21.8828C92.3906 21.6719 92.7305 21.4023 93.1289 21.0742C96 18.625 97.6582 17.2598 98.1035 16.9785C98.5605 16.6855 98.877 16.4922 99.0527 16.3984C99.2285 16.293 99.4102 16.1992 99.5977 16.1172C100.066 15.9414 100.436 15.8535 100.705 15.8535C101.221 15.8535 101.479 16.123 101.479 16.6621C101.479 17.4824 100.939 18.6777 99.8613 20.248C98.6543 22.0059 97.0547 23.7578 95.0625 25.5039C92.7422 27.5547 90.7148 28.5801 88.9805 28.5801C87.1523 28.5801 85.9219 27.3496 85.2891 24.8887C85.125 24.2559 84.9961 23.6641 84.9023 23.1133L84.6387 21.7422C84.5684 21.3789 84.4746 21.1973 84.3574 21.1973C84.252 21.1973 84.0234 21.373 83.6719 21.7246L82.3711 23.043C80.918 24.5195 79.6992 25.5977 78.7148 26.2773C76.7344 27.6602 75 28.3516 73.5117 28.3516C71.7305 28.3516 70.6816 27.4492 70.3652 25.6445C70.2715 25.1055 70.2246 24.4258 70.2246 23.6055C70.2246 22.7734 70.3418 21.7598 70.5762 20.5645C70.8105 19.3691 71.1328 18.1738 71.543 16.9785C72.4336 14.4238 73.541 12.2441 74.8652 10.4395L76.4297 8.36523C80.2148 3.41992 83.3789 0.947266 85.9219 0.947266C86.4961 0.947266 86.9121 1.22852 87.1699 1.79102C87.252 1.9668 87.293 2.23047 87.293 2.58203C87.293 2.93359 87.1406 3.39062 86.8359 3.95312C86.5312 4.50391 86.1562 5.07812 85.7109 5.67578C85.2656 6.27344 84.7852 6.88281 84.2695 7.50391C83.7656 8.11328 83.3027 8.7168 82.8809 9.31445L81.5625 11.2305C79.8398 13.8203 78.9785 15.6191 78.9785 16.627ZM106.295 22.7266C105.885 22.7266 105.68 22.4863 105.68 22.0059C105.68 21.5488 105.809 21.0859 106.066 20.6172C106.336 20.1484 106.588 19.8203 106.822 19.6328C107.057 19.4336 107.309 19.2578 107.578 19.1055C108.164 18.8008 108.68 18.6484 109.125 18.6484H119.303C119.49 18.6484 119.666 18.7188 119.83 18.8594C119.994 18.9883 120.076 19.1699 120.076 19.4043C120.076 19.873 119.918 20.3711 119.602 20.8984C119.297 21.4141 118.928 21.8535 118.494 22.2168C118.072 22.5684 117.639 22.7441 117.193 22.7441L106.295 22.7266ZM158.924 14.7988C159.299 14.7988 159.486 15.1152 159.486 15.748C159.486 16.8379 158.725 18.25 157.201 19.9844L156.199 21.0039C153.164 24.0391 150.305 26.0605 147.621 27.0684C145.957 27.6895 144.762 27.6602 144.035 26.9805C143.438 26.4062 142.963 25.4805 142.611 24.2031L142.189 22.6738L138.445 24.9766L136.283 26.207C133.705 27.6133 131.771 28.3164 130.482 28.3164C128.83 28.3164 127.453 27.6777 126.352 26.4004C125.297 25.1934 124.77 23.793 124.77 22.1992C124.77 20.6289 125.396 19.2285 126.65 17.998C128.443 16.2402 131.273 14.6289 135.141 13.1641C138.797 11.793 141.75 11.1074 144 11.1074C144.762 11.1074 145.143 11.4824 145.143 12.2324C145.143 12.748 145.043 13.1348 144.844 13.3926C144.645 13.6504 144.234 13.9141 143.613 14.1836L141.398 15.1328C138.117 16.5039 135.715 17.9277 134.191 19.4043C133.758 19.8145 133.541 20.2129 133.541 20.5996C133.541 20.9863 133.852 21.1797 134.473 21.1797C135.082 21.1797 136.5 20.5234 138.727 19.2109L140.186 18.3496C142.447 16.9902 144.34 16.3105 145.863 16.3105C147.152 16.3105 148.008 16.8789 148.43 18.0156C148.535 18.3203 148.635 18.6309 148.729 18.9473C148.822 19.252 148.916 19.5273 149.01 19.7734C149.221 20.3477 149.408 20.6348 149.572 20.6348C149.748 20.6348 149.994 20.5527 150.311 20.3887C150.627 20.2129 150.973 19.9961 151.348 19.7383C151.734 19.4688 152.133 19.1758 152.543 18.8594L154.67 17.1543C156.557 15.584 157.975 14.7988 158.924 14.7988ZM162.967 22.7266C162.557 22.7266 162.352 22.4863 162.352 22.0059C162.352 21.5488 162.48 21.0859 162.738 20.6172C163.008 20.1484 163.26 19.8203 163.494 19.6328C163.729 19.4336 163.98 19.2578 164.25 19.1055C164.836 18.8008 165.352 18.6484 165.797 18.6484H175.975C176.162 18.6484 176.338 18.7188 176.502 18.8594C176.666 18.9883 176.748 19.1699 176.748 19.4043C176.748 19.873 176.59 20.3711 176.273 20.8984C175.969 21.4141 175.6 21.8535 175.166 22.2168C174.744 22.5684 174.311 22.7441 173.865 22.7441L162.967 22.7266ZM28.8281 55.3164C27.668 55.3164 26.8594 54.7656 26.4023 53.6641C24.7148 53.6641 22.8633 54.0742 20.8477 54.8945C19.5938 55.4102 18.75 55.8848 18.3164 56.3184C17.8828 56.752 17.6484 57.0918 17.6133 57.3379C17.5898 57.584 17.7129 57.7949 17.9824 57.9707C18.252 58.1348 18.627 58.293 19.1074 58.4453C19.5996 58.5977 20.168 58.75 20.8125 58.9023C24.1875 59.6875 26.3262 60.2324 27.2285 60.5371C29.0215 61.1348 30.3633 61.791 31.2539 62.5059C32.0977 63.2207 32.5195 64.1934 32.5195 65.4238C32.5195 66.4434 32.2031 67.3047 31.5703 68.0078C30.9492 68.7109 30.123 69.3379 29.0918 69.8887C28.0605 70.4395 26.9062 70.9316 25.6289 71.3652C24.3633 71.7871 23.0215 72.1504 21.6035 72.4551C20.1973 72.7598 18.8086 73.0117 17.4375 73.2109C14.7539 73.5859 12.4629 73.7734 10.5645 73.7734C7.10742 73.7734 4.44141 73.3574 2.56641 72.5254C1.86328 72.209 1.28906 71.418 0.84375 70.1523C0.492188 69.1094 0.316406 68.2539 0.316406 67.5859C0.316406 66.9062 0.375 66.5312 0.492188 66.4609C0.609375 66.3906 0.849609 66.3906 1.21289 66.4609C1.57617 66.5195 2.05078 66.625 2.63672 66.7773L4.74609 67.3398C8.01562 68.1602 11.4727 68.5703 15.1172 68.5703C17.8008 68.5703 20.0742 68.3301 21.9375 67.8496C23.0391 67.5566 23.625 67.2285 23.6953 66.8652C23.7422 66.5488 22.875 66.1562 21.0938 65.6875C20.2852 65.4648 19.3477 65.2305 18.2812 64.9844C13.1133 63.7305 9.99609 62.9219 8.92969 62.5586C7.86328 62.1953 7.16602 61.873 6.83789 61.5918C6.52148 61.3105 6.25781 61 6.04688 60.6602C5.66016 59.9922 5.4668 59.3594 5.4668 58.7617C5.4668 58.1523 5.49609 57.6836 5.55469 57.3555C5.625 57.0273 5.71875 56.7227 5.83594 56.4414C6.08203 55.8672 6.39258 55.4746 6.76758 55.2637C9.7793 53.5762 14.2031 52.0938 20.0391 50.8164C25.2305 49.668 29.502 49.0938 32.8535 49.0938C33.5332 49.0938 34.043 49.2109 34.3828 49.4453C34.9688 49.8789 35.2266 50.3418 35.1562 50.834C35.0859 51.3262 34.9336 51.7832 34.6992 52.2051C34.4766 52.6152 34.1953 52.9902 33.8555 53.3301C33.5156 53.6582 33.1348 53.9512 32.7129 54.209C32.3027 54.4551 31.875 54.6602 31.4297 54.8242C30.5391 55.1523 29.6719 55.3164 28.8281 55.3164ZM51.75 73.8438C49.3477 73.8438 46.9805 72.3086 44.6484 69.2383L42.6094 70.75C40.4414 72.2969 39 73.0703 38.2852 73.0703C37.4766 73.0703 36.7266 72.7656 36.0352 72.1562C35.8359 71.9805 35.6895 71.793 35.5957 71.5938C35.1621 71.1602 34.9453 70.0293 34.9453 68.2012C34.9453 66.3613 35.1504 64.6387 35.5605 63.0332C35.9707 61.4277 36.5039 59.9395 37.1602 58.5684C38.1914 56.4121 39.791 54.0449 41.959 51.4668C43.1777 49.709 44.6719 48.2676 46.4414 47.1426C47.9414 46.1934 49.1953 45.7188 50.2031 45.7188C50.7539 45.7188 51.2168 45.8418 51.5918 46.0879C51.9785 46.334 52.1719 46.668 52.1719 47.0898C52.1719 47.5117 52.0078 47.9746 51.6797 48.4785C47.8242 54.1035 45.5977 57.3848 45 58.3223C44.4023 59.2598 43.9805 59.9805 43.7344 60.4844C43.4883 60.9883 43.3066 61.375 43.1895 61.6445C43.0723 61.9023 42.9609 62.1719 42.8555 62.4531C42.6094 63.1094 42.4863 63.584 42.4863 63.877C42.4863 64.1699 42.709 64.3164 43.1543 64.3164C43.5645 64.3164 44.6367 63.2559 46.3711 61.1348L48.7266 58.2168C49.5938 57.127 50.4902 56.377 51.416 55.9668C52.3535 55.5566 53.168 55.3516 53.8594 55.3516C55.8164 55.3516 56.7949 55.8262 56.7949 56.7754C56.7949 57.6309 56.1445 58.832 54.8438 60.3789C54.7031 60.543 54.4922 60.7656 54.2109 61.0469L51.8555 63.2266L50.291 64.6152C51.3926 65.9043 52.4766 66.8125 53.543 67.3398C53.7891 67.457 53.9941 67.5156 54.1582 67.5156C54.334 67.5156 54.6445 67.4102 55.0898 67.1992C55.5352 66.9766 56.0332 66.6953 56.584 66.3555C57.1465 66.0039 57.7383 65.6113 58.3594 65.1777L63.1758 61.6621C63.5977 61.334 64.0195 61.1699 64.4414 61.1699C65.3203 61.1699 65.7598 61.5332 65.7598 62.2598C65.7598 63.209 65.2969 64.3164 64.3711 65.582C64.0898 65.957 63.8203 66.2734 63.5625 66.5312L62.4375 67.5508C59.2969 70.4688 56.4492 72.4141 53.8945 73.3867C53.1211 73.6914 52.4062 73.8438 51.75 73.8438ZM87.1699 60.0801C87.7324 60.0801 88.0137 60.3965 88.0137 61.0293C88.0137 61.4512 87.8672 61.9844 87.5742 62.6289C87.293 63.2617 86.8828 63.8594 86.3438 64.4219C85.8047 64.9727 85.1836 65.5469 84.4805 66.1445C83.7891 66.7422 82.9746 67.3691 82.0371 68.0254C81.1113 68.6816 80.0859 69.332 78.9609 69.9766C77.8359 70.6211 76.6406 71.2012 75.375 71.7168C72.5742 72.8652 69.8613 73.4395 67.2363 73.4395C65.2324 73.4395 63.4805 72.918 61.9805 71.875C60.4102 70.7852 59.625 69.4609 59.625 67.9023C59.625 65.4531 60.9434 63.127 63.5801 60.9238C65.8535 59.0254 68.5312 57.5547 71.6133 56.5117C73.4883 55.8789 75.0762 55.5625 76.377 55.5625C77.4316 55.5625 78.3223 55.8203 79.0488 56.3359C79.8223 56.8984 80.209 57.6543 80.209 58.6035C80.209 60.0918 79.0312 61.7383 76.6758 63.543C76.3008 63.8359 75.9609 64.082 75.6562 64.2812L75.0234 64.7031C73.8516 65.5234 72.0703 66.4434 69.6797 67.4629C70.418 67.8496 71.1035 68.043 71.7363 68.043C72.3809 68.043 72.9551 67.9668 73.459 67.8145C73.9746 67.6621 74.5547 67.4453 75.1992 67.1641C75.8438 66.8828 76.5293 66.5488 77.2559 66.1621C77.9941 65.7637 78.7383 65.3301 79.4883 64.8613C81.1641 63.8184 82.6172 62.752 83.8477 61.6621C84.4922 61.0645 85.3125 60.5898 86.3086 60.2383C86.6367 60.1328 86.9238 60.0801 87.1699 60.0801ZM67.7812 65.0195L68.748 64.5273C69.0645 64.3633 69.3457 64.2109 69.5918 64.0703C71.959 62.7109 73.3066 61.873 73.6348 61.5566C73.9629 61.2402 74.127 61.0234 74.127 60.9062C74.127 60.7773 74.0918 60.6309 74.0215 60.4668C73.9512 60.3027 73.8574 60.1562 73.7402 60.0273C73.459 59.6992 73.1602 59.5352 72.8438 59.5352C72.5273 59.5352 72.1758 59.5938 71.7891 59.7109C71.4141 59.8281 71.0332 59.9922 70.6465 60.2031C70.2598 60.4023 69.8848 60.6484 69.5215 60.9414C69.1699 61.2227 68.8594 61.5273 68.5898 61.8555C67.9688 62.5938 67.6582 63.2324 67.6582 63.7715C67.6582 64.3105 67.6992 64.7266 67.7812 65.0195ZM103.201 60.959C104.35 60.959 104.924 61.3574 104.924 62.1543C104.924 62.916 104.385 63.9004 103.307 65.1074L102.445 66.0039C101.402 67.0703 100.184 68.1191 98.7891 69.1504C97.4062 70.1816 96.1875 70.9961 95.1328 71.5938C92.6836 72.9531 90.4629 73.6328 88.4707 73.6328C86.5957 73.6328 85.0664 73.0703 83.8828 71.9453C82.8633 70.9727 82.3535 69.9473 82.3535 68.8691C82.3535 67.791 82.459 66.7188 82.6699 65.6523C82.8809 64.5859 83.1562 63.543 83.4961 62.5234C84.1758 60.4492 84.9199 58.6855 85.7285 57.2324C85.9395 56.834 86.0449 56.5762 86.0449 56.459H83.7773C82.9219 56.459 82.2598 56.2598 81.791 55.8613C81.3223 55.4629 81.0879 55.0117 81.0879 54.5078C81.0879 54.0039 81.1816 53.6348 81.3691 53.4004C81.5566 53.166 81.791 52.9961 82.0723 52.8906C82.4707 52.7266 83.0566 52.6445 83.8301 52.6445L88.1367 52.6621C88.2305 52.627 88.418 52.375 88.6992 51.9062L89.7715 50.0605C90.2285 49.2402 90.6855 48.6367 91.1426 48.25C91.6113 47.8633 92.1562 47.6699 92.7773 47.6699C93.4102 47.6699 93.9375 47.7285 94.3594 47.8457C94.793 47.9629 95.1562 48.1094 95.4492 48.2852C96.0234 48.6602 96.3105 49.0703 96.3105 49.5156C96.3105 49.7031 96.2461 49.9551 96.1172 50.2715L95.1328 52.6621L103.482 52.6445C104.209 52.6445 104.572 53.0195 104.572 53.7695C104.572 55.5508 102.984 56.4414 99.8086 56.4414L93.375 56.459C93.2344 56.5293 92.9941 56.8691 92.6543 57.4785L91.8633 58.9375C91.6641 59.3008 91.5234 59.5762 91.4414 59.7637L91.0547 60.625C90.2695 62.3945 89.877 63.6719 89.877 64.457C89.877 65.2422 90.082 65.8984 90.4922 66.4258C90.9141 66.9531 91.4707 67.2168 92.1621 67.2168C92.8535 67.2168 93.5273 67.082 94.1836 66.8125C94.8516 66.543 95.502 66.2148 96.1348 65.8281C97.2832 65.1133 98.1855 64.4512 98.8418 63.8418C99.498 63.2324 100.043 62.7695 100.477 62.4531C100.477 62.4531 100.887 62.166 101.707 61.5918C102.34 61.1699 102.838 60.959 103.201 60.959ZM126.721 61.6621C126.721 62.2129 126 63.2793 124.559 64.8613C123.082 66.4668 121.635 67.7734 120.217 68.7812C117.475 70.8203 114.434 72.2148 111.094 72.9648C109.828 73.2578 108.627 73.4043 107.49 73.4043C106.365 73.4043 105.428 73.3047 104.678 73.1055C103.939 72.918 103.271 72.666 102.674 72.3496C102.088 72.0215 101.578 71.6465 101.145 71.2246C100.711 70.8027 100.348 70.3574 100.055 69.8887C99.4805 68.9746 99.1934 68.1309 99.1934 67.3574C99.1934 66.584 99.2812 65.9043 99.457 65.3184C99.6211 64.7324 99.8555 64.1758 100.16 63.6484C101.227 61.7266 103.371 60.0273 106.594 58.5508C109.137 57.3672 111.562 56.5996 113.871 56.248C114.867 56.0957 115.576 56.0195 115.998 56.0195C116.42 56.0195 116.771 56.0664 117.053 56.1602C117.346 56.2422 117.598 56.3594 117.809 56.5117C118.277 56.8516 118.512 57.3145 118.512 57.9004C118.512 58.4863 118.359 59.043 118.055 59.5703C117.75 60.0859 117.363 60.5195 116.895 60.8711C115.98 61.5508 114.961 61.8906 113.836 61.8906C112.301 61.8906 111.035 61.6914 110.039 61.293C109.348 61.5391 108.762 61.9902 108.281 62.6465C107.883 63.1855 107.684 63.6719 107.684 64.1055C107.684 64.5273 107.777 64.9434 107.965 65.3535C108.164 65.752 108.439 66.1094 108.791 66.4258C109.564 67.1055 110.496 67.4453 111.586 67.4453C114.117 67.4453 117.064 66.1035 120.428 63.4199L122.027 62.1719C123.715 60.8828 124.916 60.2383 125.631 60.2383C126.357 60.2383 126.721 60.7129 126.721 61.6621ZM129.92 61.627C129.92 62.0488 130.078 62.2598 130.395 62.2598C130.781 62.2598 131.279 62.002 131.889 61.4863L133.418 60.168C135.035 58.7734 136.576 58.0762 138.041 58.0762C138.99 58.0762 139.834 58.8672 140.572 60.4492C141.217 61.8086 141.797 63.8359 142.312 66.5312C142.406 66.9766 142.482 67.1992 142.541 67.1992C142.611 67.1992 142.781 67.0938 143.051 66.8828C143.332 66.6719 143.672 66.4023 144.07 66.0742C146.941 63.625 148.6 62.2598 149.045 61.9785C149.502 61.6855 149.818 61.4922 149.994 61.3984C150.17 61.293 150.352 61.1992 150.539 61.1172C151.008 60.9414 151.377 60.8535 151.646 60.8535C152.162 60.8535 152.42 61.123 152.42 61.6621C152.42 62.4824 151.881 63.6777 150.803 65.248C149.596 67.0059 147.996 68.7578 146.004 70.5039C143.684 72.5547 141.656 73.5801 139.922 73.5801C138.094 73.5801 136.863 72.3496 136.23 69.8887C136.066 69.2559 135.938 68.6641 135.844 68.1133L135.58 66.7422C135.51 66.3789 135.416 66.1973 135.299 66.1973C135.193 66.1973 134.965 66.373 134.613 66.7246L133.312 68.043C131.859 69.5195 130.641 70.5977 129.656 71.2773C127.676 72.6602 125.941 73.3516 124.453 73.3516C122.672 73.3516 121.623 72.4492 121.307 70.6445C121.213 70.1055 121.166 69.4258 121.166 68.6055C121.166 67.7734 121.283 66.7598 121.518 65.5645C121.752 64.3691 122.074 63.1738 122.484 61.9785C123.375 59.4238 124.482 57.2441 125.807 55.4395L127.371 53.3652C131.156 48.4199 134.32 45.9473 136.863 45.9473C137.438 45.9473 137.854 46.2285 138.111 46.791C138.193 46.9668 138.234 47.2305 138.234 47.582C138.234 47.9336 138.082 48.3906 137.777 48.9531C137.473 49.5039 137.098 50.0781 136.652 50.6758C136.207 51.2734 135.727 51.8828 135.211 52.5039C134.707 53.1133 134.244 53.7168 133.822 54.3145L132.504 56.2305C130.781 58.8203 129.92 60.6191 129.92 61.627Z" fill="url(#paint0_linear_1_28)"/>
<defs>
<linearGradient id="paint0_linear_1_28" x1="96.5" y1="-6" x2="96.5" y2="87" gradientUnits="userSpaceOnUse">
<stop stop-color="#2B74E1"/>
<stop offset="1" stop-color="#DE2BE1"/>
</linearGradient>
</defs>
</svg>
